<svg width="130" height="49" viewBox="0 0 130 49" fill="none" xmlns="http://www.w3.org/2000/svg">
<g clip-path="url(#clip0_4994_35046)">
<path d="M118.988 31.8698C125.069 31.8698 130 26.9394 130 20.8575C130 14.7756 125.069 9.84521 118.988 9.84521C112.906 9.84521 107.975 14.7756 107.975 20.8575C107.975 26.9394 112.906 31.8698 118.988 31.8698Z" fill="url(#paint0_linear_4994_35046)"/>
<path opacity="0.6" d="M113.933 25.2864C112.702 19.3308 116.531 13.5046 122.487 12.2719C123.55 12.0513 124.608 11.9966 125.638 12.0823C123.194 10.2314 119.996 9.4035 116.759 10.0727C110.804 11.3036 106.974 17.1316 108.205 23.0873C109.217 27.9798 113.329 31.4354 118.068 31.8311C116.017 30.2774 114.496 28.0053 113.933 25.2864Z" fill="url(#paint1_radial_4994_35046)"/>
<path d="M129.932 33.9279V38.339C129.932 44.4278 124.996 49.3641 118.907 49.3641H92.7925C84.8109 49.3641 79.4752 41.1473 82.7211 33.855L97.84 -0.106445C105.783 -0.106445 111.095 8.07209 107.864 15.3279L100.964 30.8261C100.315 32.2849 101.381 33.9279 102.979 33.9279H129.932Z" fill="#99D4E1"/>
<path d="M103.024 33.8786C101.556 33.8258 100.437 32.4143 100.931 30.9136L99.6635 33.7856C96.4012 41.1016 101.737 49.3604 109.726 49.3622C114.759 49.3622 118.953 49.3622 118.953 49.3622C125.042 49.3622 129.978 44.4113 129.978 38.3025V33.8786H103.024Z" fill="url(#paint2_linear_4994_35046)"/>
<path opacity="0.6" d="M103.024 33.8786C101.556 33.8258 100.437 32.4143 100.931 30.9136L99.6635 33.7856C96.4012 41.1016 101.737 49.3604 109.726 49.3622C114.759 49.3622 118.953 49.3622 118.953 49.3622C125.042 49.3622 129.978 44.4113 129.978 38.3025V33.8786H103.024Z" fill="url(#paint3_radial_4994_35046)"/>
<path opacity="0.6" d="M119.285 42.1464C119.285 42.1464 115.091 42.1464 110.058 42.1464C104.873 42.1464 100.81 38.6671 99.4848 34.2268C96.6218 41.4298 101.897 49.3621 109.728 49.364C114.761 49.364 118.955 49.364 118.955 49.364C125.043 49.364 129.98 44.4131 129.98 38.3042V33.8804H129.956C128.723 38.6361 124.414 42.1482 119.287 42.1482L119.285 42.1464Z" fill="url(#paint4_radial_4994_35046)"/>
<path opacity="0.6" d="M90.9343 33.8551L104.908 2.46851C103.033 0.880217 100.595 -0.104492 97.84 -0.104492L82.7211 33.8569C79.4752 41.1474 84.8109 49.366 92.7925 49.366H100.987C93.0168 49.3515 87.6902 41.1419 90.9343 33.8569V33.8551Z" fill="url(#paint5_radial_4994_35046)"/>
<path d="M9.08873 10.1618C8.34473 10.1618 7.97455 9.80256 7.97455 9.08226C7.97455 8.36197 8.34655 7.96808 9.08873 7.96808V7.24414C8.54532 7.24414 8.08761 7.42467 7.71561 7.78391C7.34361 8.14497 7.15761 8.59903 7.15761 9.15156C7.15761 9.70409 7.29255 10.0177 7.56061 10.1636H6.42273V11.0261H9.08873V10.1636V10.1618Z" fill="#077FB9"/>
<path d="M13.2939 19.0916C13.2939 19.5675 13.0641 19.8046 12.6046 19.8046H2.90707C2.44754 19.8046 2.21778 19.5675 2.21778 19.0916V8.99105C0.992367 8.99105 0.000366211 9.98306 0.000366211 11.2085V19.0916C0.000366211 19.8812 0.290306 20.5577 0.868365 21.1194C1.44642 21.6828 2.1266 21.9636 2.90707 21.9636H12.6046C13.3851 21.9636 14.0652 21.6828 14.6451 21.1194C15.2232 20.5559 15.5131 19.8793 15.5131 19.0916V5.10693H13.2957V19.0916H13.2939Z" fill="#077FB9"/>
<path d="M26.5544 9.00179C25.5971 9.00179 24.8349 9.28626 24.2677 9.85156C23.7006 10.4187 23.418 11.1007 23.418 11.8976V19.1716C23.418 19.5928 23.2302 19.8044 22.8545 19.8044H21.8424C21.3756 19.8044 21.1422 19.56 21.1422 19.0695V8.99268C19.9113 8.99268 18.9139 9.99015 18.9139 11.221V21.8157C18.9139 23.2399 18.4744 24.3705 17.5918 25.2057L19.2585 26.6536C20.5149 25.481 21.1422 24.0222 21.1422 22.2753V21.8157C21.1732 21.916 21.4066 21.9653 21.8424 21.9653H23.4161C24.0453 21.9653 24.5723 21.7592 25.0026 21.3453C25.4311 20.9313 25.6463 20.4189 25.6463 19.8062V12.131C25.6463 11.5803 25.9527 11.3031 26.5654 11.3031C27.262 11.3031 27.6103 11.5784 27.6103 12.131V19.095C27.6103 19.478 27.4079 19.7114 27.0012 19.7953C26.3575 19.7953 25.9053 19.7989 25.6445 19.8062V21.9671H27.6103C29.0964 21.9671 29.8386 21.0097 29.8386 19.095V11.821C29.8386 11.0478 29.5414 10.384 28.9487 9.83332C28.3543 9.28261 27.5556 9.00544 26.5526 9.00544L26.5544 9.00179Z" fill="#077FB9"/>
<path d="M32.904 6.86845C32.904 7.35169 33.0261 7.65986 33.2723 7.79298H32.2329V8.59169H34.6691V7.79298C33.9908 7.79298 33.6498 7.46657 33.6498 6.81557C33.6498 6.16457 33.989 5.79622 34.6691 5.79622V5.13428C34.1731 5.13428 33.7537 5.29657 33.4146 5.62298C33.0754 5.94939 32.9058 6.36334 32.9058 6.86663L32.904 6.86845Z" fill="#077FB9"/>
<path d="M32.4263 21.9637H34.6327L34.6674 11.1957C34.6674 9.97761 33.679 8.98926 32.4609 8.98926L32.4263 21.9618V21.9637Z" fill="#077FB9"/>
<path d="M45.5264 8.05909C45.8109 8.05909 46.0552 7.96063 46.2613 7.76004C46.4674 7.56127 46.5713 7.32057 46.5713 7.0361C46.5713 6.75162 46.4674 6.50727 46.2613 6.30121C46.0552 6.09515 45.8091 5.99121 45.5264 5.99121C45.2438 5.99121 45.0012 6.09515 44.8025 6.30121C44.6037 6.50727 44.5034 6.75345 44.5034 7.0361C44.5034 7.31874 44.6055 7.55215 44.8079 7.75457C45.0104 7.95698 45.2492 8.05909 45.5264 8.05909Z" fill="#077FB9"/>
<path d="M48.0539 8.05909C48.3457 8.05909 48.5918 7.96063 48.7961 7.76004C48.9985 7.56127 49.1006 7.32057 49.1006 7.0361C49.1006 6.75162 48.9985 6.50727 48.7961 6.30121C48.5937 6.09515 48.3457 5.99121 48.0539 5.99121C47.7621 5.99121 47.5287 6.09515 47.3299 6.30121C47.1312 6.50727 47.0309 6.75345 47.0309 7.0361C47.0309 7.31874 47.1348 7.55215 47.3409 7.75457C47.5469 7.95698 47.7858 8.05909 48.0539 8.05909Z" fill="#077FB9"/>
<path d="M69.9563 8.05909C70.2408 8.05909 70.4851 7.96063 70.6912 7.76004C70.8972 7.56127 71.0012 7.32057 71.0012 7.0361C71.0012 6.75162 70.8972 6.50727 70.6912 6.30121C70.4851 6.09515 70.2389 5.99121 69.9563 5.99121C69.6737 5.99121 69.4293 6.09515 69.2269 6.30121C69.0245 6.50727 68.9224 6.75345 68.9224 7.0361C68.9224 7.31874 69.0263 7.55215 69.2324 7.75457C69.4384 7.95698 69.6809 8.05909 69.9563 8.05909Z" fill="#077FB9"/>
<path d="M68.4847 19.0917C68.4847 19.5677 68.255 19.8047 67.7954 19.8047H66.1415C65.682 19.8047 65.4522 19.5677 65.4522 19.0917V11.8633C65.4522 11.0901 65.155 10.4263 64.5623 9.87562C63.9678 9.32492 62.9394 9.04774 61.4769 9.04774C60.0144 9.04774 58.9531 9.33039 58.386 9.89203C57.8189 10.4555 57.5362 11.1393 57.5362 11.9435V18.056H59.7646V12.1733C59.7646 11.6226 60.339 11.3454 61.4878 11.3454C62.6367 11.3454 63.2238 11.6207 63.2238 12.1733V19.0917C63.2238 19.4856 62.9047 19.8047 62.5108 19.8047H55.6617C55.2021 19.8047 54.9724 19.5677 54.9724 19.0917V8.99121H52.755V19.0917C52.755 19.5677 52.5252 19.8047 52.0657 19.8047H42.3681C41.9086 19.8047 41.6788 19.5677 41.6788 19.0917V8.99121C40.4534 8.99121 39.4614 9.98321 39.4614 11.2086V19.0917C39.4614 19.8813 39.7514 20.5579 40.3294 21.1195C40.9075 21.683 41.5877 21.9638 42.3681 21.9638H52.0657C52.786 21.9638 53.3677 21.7413 53.8126 21.2982C54.3341 21.7432 54.9505 21.9638 55.6635 21.9638H62.6148C63.2512 21.9638 63.8292 21.7413 64.3508 21.2982C64.8577 21.7377 65.4485 21.9583 66.1196 21.9638H66.1433H67.5675C68.5103 21.9638 69.2707 21.683 69.8487 21.1195C70.4268 20.556 70.7167 19.8795 70.7167 19.0917V11.2196C70.7167 9.98868 69.7192 8.99121 68.4884 8.99121V19.0917H68.4847Z" fill="#077FB9"/>
<path d="M67.4288 8.05909C67.7133 8.05909 67.9577 7.96063 68.1637 7.76004C68.3698 7.56127 68.4737 7.32057 68.4737 7.0361C68.4737 6.75162 68.3698 6.50727 68.1637 6.30121C67.9577 6.09515 67.7115 5.99121 67.4288 5.99121C67.1462 5.99121 66.9018 6.09515 66.6994 6.30121C66.497 6.50727 66.3949 6.75345 66.3949 7.0361C66.3949 7.31874 66.4988 7.55215 66.7049 7.75457C66.9109 7.95698 67.1535 8.05909 67.4288 8.05909Z" fill="#077FB9"/>
<path d="M36.2812 44.1067V33.501C36.2812 32.9503 36.5876 32.6731 37.2003 32.6731C37.8968 32.6731 38.2451 32.9485 38.2451 33.501V44.1067H40.4735V33.191C40.4735 32.4178 40.1763 31.7541 39.5836 31.2034C38.9891 30.6527 38.1904 30.3755 37.1875 30.3755C36.1846 30.3755 35.4679 30.66 34.9008 31.2253C34.3337 31.7924 34.051 32.4744 34.051 33.2713V44.1067H36.2794H36.2812Z" fill="#077FB9"/>
<path d="M34.2753 40.3356V38.1072H38.2469V38.7692C38.2469 39.6353 37.5449 40.3374 36.6787 40.3374H34.2753V40.3356Z" fill="#077FB9"/>
<path d="M45.025 44.1067V33.501C45.025 32.9503 45.3313 32.6731 45.944 32.6731C46.6406 32.6731 46.9889 32.9485 46.9889 33.501L46.9999 40.3356H49.2282L49.2173 33.191C49.2173 32.4178 48.92 31.7541 48.3274 31.2034C47.7329 30.6527 46.9342 30.3755 45.9313 30.3755C44.9283 30.3755 44.2117 30.66 43.6446 31.2253C43.0774 31.7924 42.7948 32.4744 42.7948 33.2713V44.1067H45.0232H45.025Z" fill="#077FB9"/>
<path d="M51.194 44.1067V33.501C51.194 32.9503 50.8877 32.6731 50.2749 32.6731C49.5784 32.6731 49.2301 32.9485 49.2301 33.501L49.241 40.3356H47.0126L47.0017 33.191C47.0017 32.4178 47.2989 31.7541 47.8916 31.2034C48.4861 30.6527 49.2848 30.3755 50.2877 30.3755C51.2907 30.3755 52.0073 30.66 52.5744 31.2253C53.1415 31.7924 53.4242 32.4744 53.4242 33.2713V44.1067H51.1958H51.194Z" fill="#077FB9"/>
<path d="M68.4847 33.1436V37.21C68.4847 37.7443 68.1547 38.016 67.5018 38.0343V40.3337C68.4701 40.3191 69.2451 40.0474 69.8232 39.5095C70.4158 38.9588 70.7131 38.295 70.7131 37.5219V35.3737C70.7131 34.1429 69.7156 33.1454 68.4847 33.1454V33.1436Z" fill="#077FB9"/>
<path d="M66.7177 30.3755H64.4894V44.1067H66.7177V30.3755Z" fill="#077FB9"/>
<path d="M70.6674 44.1013L68.4482 38.0381H66.1031L68.3242 44.1013H70.6674Z" fill="#077FB9"/>
<path d="M68.2239 38.0562H65.6035V40.3556H68.2239V38.0562Z" fill="#077FB9"/>
<path d="M5.08602 30.7275H2.85767V44.1086H5.08602V30.7275Z" fill="#077FB9"/>
<path d="M-0.00158691 32.6256L-0.00158691 30.2879H6.30236C7.21047 30.2879 7.94718 31.0246 7.94718 31.9327V32.6274H0.000238396L-0.00158691 32.6256Z" fill="#077FB9"/>
<path d="M25.619 30.7275H23.3906V44.1086H25.619V30.7275Z" fill="#077FB9"/>
<path d="M20.5314 32.6237V30.2859H26.8353C27.7434 30.2859 28.4801 31.0226 28.4801 31.9307V32.6255H20.5332L20.5314 32.6237Z" fill="#077FB9"/>
<path d="M18.1589 32.6674C18.044 32.0602 17.7632 31.5587 17.3109 31.1338L17.2927 31.1174C16.7584 30.6214 15.8685 30.3497 14.6322 30.3005L14.6231 30.2896H10.2484V34.7408H12.3345V32.9738C12.3345 32.7787 12.4932 32.62 12.6883 32.62H14.8036C15.5932 32.6073 15.9542 32.9665 15.9542 33.4151L12.4585 44.1064H14.9203L18.0349 34.305C18.2026 33.7761 18.2628 33.2127 18.1607 32.6674H18.1589Z" fill="#077FB9"/>
<path d="M57.9831 33.4463V37.21C57.9831 37.7644 58.2912 38.0434 58.9076 38.0434C59.6096 38.0434 59.9598 37.7662 59.9598 37.21V33.9113H62.2027V37.5219C62.2027 38.3005 61.9036 38.9679 61.3073 39.5223C60.7092 40.0766 59.9051 40.3556 58.8966 40.3556C57.8882 40.3556 57.1661 40.0712 56.5953 39.5004C56.0246 38.9296 55.7401 38.244 55.7401 37.4416V33.4463H57.9831Z" fill="#077FB9"/>
<path d="M62.1625 44.1502L60.3718 38.623L58.2383 39.316L59.8047 44.1502H62.1625Z" fill="#077FB9"/>
<path d="M57.9812 34.9741H55.7383V44.1501H57.9812V34.9741Z" fill="#077FB9"/>
<path d="M61.3073 31.1649C60.7092 30.6105 59.905 30.3315 58.8966 30.3315V32.6456C58.8966 32.6456 58.9039 32.6456 58.9075 32.6456C59.6096 32.6456 59.9597 32.9228 59.9597 33.479V36.7777H62.2027V33.1671C62.2027 32.3885 61.9036 31.7211 61.3073 31.1667V31.1649Z" fill="#077FB9"/>
<path d="M56.6356 31.1649C57.2337 30.6105 58.0379 30.3315 59.0463 30.3315V32.6456C59.0463 32.6456 59.039 32.6456 59.0354 32.6456C58.3333 32.6456 57.9832 32.9228 57.9832 33.479V36.7777H55.7402V33.1671C55.7402 32.3885 56.0393 31.7211 56.6356 31.1667V31.1649Z" fill="#077FB9"/>
</g>
<defs>
<linearGradient id="paint0_linear_4994_35046" x1="127.933" y1="27.279" x2="110.058" y2="14.4149" gradientUnits="userSpaceOnUse">
<stop stop-color="#2A2F6F"/>
<stop offset="0.06" stop-color="#1C4E8C"/>
<stop offset="0.15" stop-color="#0C71AC"/>
<stop offset="0.19" stop-color="#077FB9"/>
<stop offset="0.28" stop-color="#2F96C4"/>
<stop offset="0.37" stop-color="#51A9CD"/>
<stop offset="0.46" stop-color="#6DB9D5"/>
<stop offset="0.57" stop-color="#82C6DB"/>
<stop offset="0.68" stop-color="#92CFDF"/>
<stop offset="0.81" stop-color="#9BD4E2"/>
<stop offset="1" stop-color="#9ED6E3"/>
</linearGradient>
<radialGradient id="paint1_radial_4994_35046" cx="0" cy="0" r="1" gradientUnits="userSpaceOnUse" gradientTransform="translate(117.596 20.9259) rotate(-11.68) scale(13.5671 13.5671)">
<stop offset="0.11" stop-color="white"/>
<stop offset="0.12" stop-color="white" stop-opacity="0.98"/>
<stop offset="0.19" stop-color="white" stop-opacity="0.77"/>
<stop offset="0.26" stop-color="white" stop-opacity="0.59"/>
<stop offset="0.34" stop-color="white" stop-opacity="0.43"/>
<stop offset="0.42" stop-color="white" stop-opacity="0.3"/>
<stop offset="0.51" stop-color="white" stop-opacity="0.19"/>
<stop offset="0.6" stop-color="white" stop-opacity="0.11"/>
<stop offset="0.7" stop-color="white" stop-opacity="0.05"/>
<stop offset="0.82" stop-color="white" stop-opacity="0.01"/>
<stop offset="1" stop-color="white" stop-opacity="0"/>
</radialGradient>
<linearGradient id="paint2_linear_4994_35046" x1="124.412" y1="48.4614" x2="103.898" y2="27.9467" gradientUnits="userSpaceOnUse">
<stop stop-color="#9ED6E3"/>
<stop offset="0.13" stop-color="#9BD4E2"/>
<stop offset="0.23" stop-color="#91CEDF"/>
<stop offset="0.32" stop-color="#81C5DB"/>
<stop offset="0.4" stop-color="#6BB8D4"/>
<stop offset="0.48" stop-color="#4DA7CC"/>
<stop offset="0.55" stop-color="#2A93C2"/>
<stop offset="0.61" stop-color="#077FB9"/>
<stop offset="0.79" stop-color="#1A518E"/>
<stop offset="0.94" stop-color="#2A2F6F"/>
</linearGradient>
<radialGradient id="paint3_radial_4994_35046" cx="0" cy="0" r="1" gradientUnits="userSpaceOnUse" gradientTransform="translate(114.334 40.1388) scale(17.5515)">
<stop offset="0.09" stop-color="white"/>
<stop offset="0.21" stop-color="white" stop-opacity="0.79"/>
<stop offset="0.37" stop-color="white" stop-opacity="0.55"/>
<stop offset="0.53" stop-color="white" stop-opacity="0.36"/>
<stop offset="0.67" stop-color="white" stop-opacity="0.2"/>
<stop offset="0.8" stop-color="white" stop-opacity="0.09"/>
<stop offset="0.92" stop-color="white" stop-opacity="0.02"/>
<stop offset="1" stop-color="white" stop-opacity="0"/>
</radialGradient>
<radialGradient id="paint4_radial_4994_35046" cx="0" cy="0" r="1" gradientUnits="userSpaceOnUse" gradientTransform="translate(114.336 41.6213) scale(17.9891 17.9891)">
<stop offset="0.09" stop-color="white"/>
<stop offset="0.21" stop-color="white" stop-opacity="0.79"/>
<stop offset="0.37" stop-color="white" stop-opacity="0.55"/>
<stop offset="0.53" stop-color="white" stop-opacity="0.36"/>
<stop offset="0.67" stop-color="white" stop-opacity="0.2"/>
<stop offset="0.8" stop-color="white" stop-opacity="0.09"/>
<stop offset="0.92" stop-color="white" stop-opacity="0.02"/>
<stop offset="1" stop-color="white" stop-opacity="0"/>
</radialGradient>
<radialGradient id="paint5_radial_4994_35046" cx="0" cy="0" r="1" gradientUnits="userSpaceOnUse" gradientTransform="translate(93.3304 24.628) scale(27.1432 27.1432)">
<stop offset="0.07" stop-color="white"/>
<stop offset="1" stop-color="white" stop-opacity="0"/>
</radialGradient>
<clipPath id="clip0_4994_35046">
<rect width="130" height="49" fill="white"/>
</clipPath>
</defs>
</svg>
